<svg width="28" height="28" fill="none" xmlns="http://www.w3.org/2000/svg">
<symbol id='disket-icon'><path fill="#000" d="M.5 0h2.154v2.154H.5zM.5 2.154h2.154v2.154H.5zM.5 4.308h2.154v2.154H.5z"/><path fill="#000" d="M.5 6.461h2.154v2.154H.5zM.5 8.615h2.154v2.154H.5zM.5 10.769h2.154v2.154H.5zM.5 12.923h2.154v2.154H.5zM.5 15.077h2.154v2.154H.5zM.5 17.231h2.154v2.154H.5zM.5 19.385h2.154v2.154H.5zM.5 21.539h2.154v2.154H.5z"/><path fill="#000" d="M.5 23.692h2.154v2.154H.5zM.5 25.846h2.154V28H.5zM24.193 0v2.154h-2.154V0z"/><path fill="#000" d="M22.04 0v2.154h-2.155V0zM19.884 0v2.154H17.73V0zM17.73 0v2.154h-2.154V0z"/><path fill="#000" d="M15.577 0v2.154h-2.154V0zM13.423 0v2.154H11.27V0zM11.27 0v2.154H9.115V0z"/><path fill="#000" d="M9.116 0v2.154H6.962V0zM6.96 0v2.154H4.808V0zM4.807 0v2.154H2.653V0zM26.346 2.153v2.154h-2.154V2.153zM6.96 4.308v2.154H4.808V4.308zM6.96 2.154v2.154H4.808V2.154z"/><path fill="#000" d="M6.961 6.461v2.154H4.807V6.461zM22.039 4.308v2.154h-2.154V4.308zM22.039 2.154v2.154h-2.154V2.154z"/><path fill="#000" d="M22.04 6.461v2.154h-2.154V6.461zM17.73 4.307v2.154h-2.154V4.307zM17.73 2.153v2.154h-2.154V2.153z"/><path fill="#000" d="M17.73 6.46v2.155h-2.153V6.46zM22.04 8.615v2.154h-2.155V8.615zM19.884 8.615v2.154H17.73V8.615zM17.73 8.615v2.154h-2.153V8.615zM15.577 8.615v2.154h-2.154V8.615zM13.423 8.615v2.154H11.27V8.615zM11.27 8.616v2.154H9.116V8.616zM9.116 8.615v2.154H6.962V8.615zM6.961 8.615v2.154H4.807V8.615zM24.192 15.077v2.154h-2.154v-2.154z"/><path fill="#000" d="M22.039 15.077v2.154h-2.154v-2.154zM19.884 15.077v2.154H17.73v-2.154zM17.73 15.076v2.154h-2.154v-2.154z"/><path fill="#000" d="M15.577 15.077v2.154h-2.155v-2.154z"/><path fill="#000" d="M13.423 15.077v2.153h-2.154v-2.153z"/><path fill="#000" d="M11.27 15.077v2.154H9.114v-2.154z"/><path fill="#000" d="M9.116 15.077v2.154H6.962v-2.154zM6.96 15.077v2.154H4.808v-2.154zM24.193 17.231v2.154h-2.154v-2.154zM6.96 17.231v2.154H4.808v-2.154zM24.192 19.385v2.154h-2.154v-2.154zM6.96 19.385v2.154H4.808v-2.154zM24.192 21.539v2.154h-2.154v-2.154zM6.96 21.539v2.154H4.808v-2.154z"/><path fill="#000" d="M6.961 23.692v2.154H4.807v-2.154zM24.193 23.693v2.154H22.04v-2.154zM26.347 25.846V28h-2.154v-2.154z"/><path fill="#000" d="M24.193 25.846V28h-2.154v-2.154z"/><path fill="#000" d="M22.04 25.846V28h-2.155v-2.154zM19.884 25.846V28H17.73v-2.154zM17.73 25.846V28h-2.153v-2.154zM15.577 25.846V28h-2.154v-2.154zM13.423 25.846V28H11.27v-2.154zM11.27 25.847V28H9.116v-2.154zM9.116 25.846V28H6.962v-2.154zM6.961 25.846V28H4.807v-2.154zM4.807 25.846V28H2.653v-2.154zM28.5 28h-2.154v-2.154H28.5zM28.5 25.846h-2.154v-2.154H28.5z"/><path fill="#000" d="M28.5 23.693h-2.154v-2.154H28.5zM28.5 21.538h-2.154v-2.154H28.5z"/><path fill="#000" d="M28.5 19.385h-2.154V17.23H28.5z"/><path fill="#000" d="M28.5 17.231h-2.154v-2.154H28.5zM28.5 15.076h-2.154v-2.154H28.5z"/><path fill="#000" d="M28.5 12.924h-2.154V10.77H28.5zM28.5 10.769h-2.154V8.615H28.5zM28.5 8.615h-2.154V6.461H28.5z"/><path fill="#000" d="M28.5 6.462h-2.154V4.308H28.5z"/>
</symbol>
</svg>